<svg width="3236" height="2086" xmlns="http://www.w3.org/2000/svg" xmlns:xlink="http://www.w3.org/1999/xlink" overflow="hidden"><defs><clipPath id="clip0"><rect x="342" y="145" width="3236" height="2086"/></clipPath></defs><g clip-path="url(#clip0)" transform="translate(-342 -145)"><rect x="342" y="145" width="3236" height="2086" fill="#FFFFFF"/><path d="M1223.78 1651.84 1851.85 1651.84 1851.85 1662.16 1223.78 1662.16ZM1228.94 1672.47 1198 1657 1228.94 1641.53ZM1846.69 1641.53 1877.63 1657 1846.69 1672.47Z" fill="#3D1244"/><rect x="2756.5" y="1607.5" width="437" height="100" stroke="#A00975" stroke-width="3.4375" stroke-linejoin="round" stroke-miterlimit="10" fill="none"/><text fill="#A00975" font-family="Consolas,Consolas_MSFontService,sans-serif" font-weight="700" font-size="55" transform="matrix(1 0 0 1 2792.3 1676)">Module Plots</text><path d="M2.28107e-06-5.15625 790-5.1559 790 5.1566-2.28107e-06 5.15625ZM784.844-15.4684 815.781 0.000360892 784.844 15.4691Z" fill="#3D1244" transform="matrix(1 0 0 -1 1144 862)"/><rect x="1960.5" y="632.5" width="562" height="459" stroke="#A00975" stroke-width="4.58333" stroke-miterlimit="8" fill="none"/><text fill="#A00975" font-family="Consolas,Consolas_MSFontService,sans-serif" font-weight="700" font-size="55" transform="matrix(1 0 0 1 2013.07 880)">Module Analysis</text><path d="M1878.5 1657.5C1878.5 1587.91 2041.02 1531.5 2241.5 1531.5 2441.98 1531.5 2604.5 1587.91 2604.5 1657.5 2604.5 1727.09 2441.98 1783.5 2241.5 1783.5 2041.02 1783.5 1878.5 1727.09 1878.5 1657.5Z" stroke="#3D1244" stroke-width="4.58333" stroke-miterlimit="8" fill="#A00975" fill-rule="evenodd"/><rect x="1913" y="1607" width="655" height="100" fill="#A00975"/><text fill="#FFFFFF" font-family="Consolas,Consolas_MSFontService,sans-serif" font-weight="400" font-size="55" transform="matrix(1 0 0 1 1952.34 1676)">&lt;<tspan font-size="55" x="30.3645" y="0">LibraryName</tspan>&gt;Result</text><rect x="846.5" y="745.5" width="298" height="233" stroke="#FBAFE5" stroke-width="3.4375" stroke-linejoin="round" stroke-miterlimit="10" stroke-dasharray="3.4375 3.4375" fill="none"/><text font-family="Consolas,Consolas_MSFontService,sans-serif" font-weight="400" font-size="55" transform="matrix(1 0 0 1 934.276 814)">User <tspan font-size="55" x="-15.1708" y="66">input </tspan><tspan font-size="55" x="0" y="132">data</tspan></text><rect x="792.5" y="1507.5" width="406" height="300" stroke="#FBAFE5" stroke-width="3.4375" stroke-linejoin="round" stroke-miterlimit="10" stroke-dasharray="3.4375 3.4375" fill="#FFFFFF"/><text font-family="Consolas,Consolas_MSFontService,sans-serif" font-weight="400" font-size="55" transform="matrix(1 0 0 1 888.753 1576)">Results <tspan font-size="55" x="45.5354" y="66">from </tspan><tspan font-size="55" x="-15.1938" y="132">previous </tspan><tspan font-size="55" x="45.5354" y="198">runs</tspan></text><path d="M0 0 0.000360892 1200.3" stroke="#A00975" stroke-width="2.29167" stroke-miterlimit="8" stroke-dasharray="9.16667 6.875 2.29167 6.875" fill="none" fill-rule="evenodd" transform="matrix(1 0 0 -1 1538 1854.3)"/><rect x="1350.5" y="745.5" width="375" height="233" stroke="#A00975" stroke-width="3.4375" stroke-linejoin="round" stroke-miterlimit="10" fill="#FFFFFF"/><text fill="#A00975" font-family="Consolas,Consolas_MSFontService,sans-serif" font-weight="700" font-size="55" transform="matrix(1 0 0 1 1401.18 880)">Module IO</text><rect x="1350.5" y="1540.5" width="375" height="234" stroke="#A00975" stroke-width="3.4375" stroke-linejoin="round" stroke-miterlimit="10" fill="#FFFFFF"/><text fill="#A00975" font-family="Consolas,Consolas_MSFontService,sans-serif" font-weight="700" font-size="55" transform="matrix(1 0 0 1 1401.18 1675)">Module IO</text><path d="M2246.16 1091 2246.16 1505.55 2235.84 1505.55 2235.84 1091ZM2256.47 1500.39 2241 1531.33 2225.53 1500.39Z" fill="#3D1244"/><path d="M2848.96 1270 2849.64 1429.97C2930.3 1354.83 3005.5 1294.01 3099.96 1314.33L3099.29 1183.97 3075.34 1183.97C3033.86 1248.24 2934.91 1291.01 2848.96 1270Z" stroke="#3D1244" stroke-width="2.29167" stroke-linecap="round" stroke-linejoin="round" stroke-miterlimit="10" fill="#438AFE" fill-rule="evenodd" fill-opacity="0.329412"/><path d="M2851.96 1305.5 2851.96 1396.97C2933.46 1326.07 3015.28 1276.54 3097.96 1283.44L3097.96 1191.97C3036.26 1266.46 2956.08 1307.59 2851.96 1305.5Z" stroke="#3D1244" stroke-width="2.29167" stroke-linecap="round" stroke-linejoin="round" stroke-miterlimit="10" fill="#438AFE" fill-rule="evenodd" fill-opacity="0.658824"/><path d="M3102.08 1180.91 2847.08 1180.91 2847.08 1435.91 3102.08 1435.91 3102.08 1180.91ZM3096.68 1186.3 3096.68 1430.51C3096.68 1430.51 2888.86 1430.51 2852.48 1430.51 2852.48 1430.51 2852.48 1222.67 2852.48 1186.3 2852.48 1186.3 3096.68 1186.3 3096.68 1186.3L3096.68 1186.3Z" stroke="#000000" stroke-width="2.29167" stroke-linecap="round" stroke-linejoin="round" stroke-miterlimit="10" fill="#3D1244" fill-rule="evenodd"/><path d="M3091.02 1370.97 3099.02 1370.97" stroke="#3D1244" stroke-width="2.29167" stroke-linecap="round" stroke-linejoin="round" stroke-miterlimit="10" fill="none" fill-rule="evenodd"/><path d="M3091.02 1183.85 3099.02 1183.85" stroke="#3D1244" stroke-width="2.29167" stroke-linecap="round" stroke-linejoin="round" stroke-miterlimit="10" fill="none" fill-rule="evenodd"/><path d="M3091.02 1339.95 3099.02 1339.95" stroke="#3D1244" stroke-width="2.29167" stroke-linecap="round" stroke-linejoin="round" stroke-miterlimit="10" fill="none" fill-rule="evenodd"/><path d="M3091.02 1308.93 3099.02 1308.93" stroke="#3D1244" stroke-width="2.29167" stroke-linecap="round" stroke-linejoin="round" stroke-miterlimit="10" fill="none" fill-rule="evenodd"/><path d="M3091.02 1277.91 3099.02 1277.91" stroke="#3D1244" stroke-width="2.29167" stroke-linecap="round" stroke-linejoin="round" stroke-miterlimit="10" fill="none" fill-rule="evenodd"/><path d="M3091.02 1434.01 3099.02 1434.01" stroke="#3D1244" stroke-width="2.29167" stroke-linecap="round" stroke-linejoin="round" stroke-miterlimit="10" fill="none" fill-rule="evenodd"/><path d="M3091.02 1401.99 3099.02 1401.99" stroke="#3D1244" stroke-width="2.29167" stroke-linecap="round" stroke-linejoin="round" stroke-miterlimit="10" fill="none" fill-rule="evenodd"/><path d="M3091.02 1245.89 3099.02 1245.89" stroke="#3D1244" stroke-width="2.29167" stroke-linecap="round" stroke-linejoin="round" stroke-miterlimit="10" fill="none" fill-rule="evenodd"/><path d="M3091.02 1214.87 3099.02 1214.87" stroke="#3D1244" stroke-width="2.29167" stroke-linecap="round" stroke-linejoin="round" stroke-miterlimit="10" fill="none" fill-rule="evenodd"/><path d="M2913.14 1183.97 2913.14 1191.98" stroke="#3D1244" stroke-width="2.29167" stroke-linecap="round" stroke-linejoin="round" stroke-miterlimit="10" fill="none" fill-rule="evenodd"/><path d="M3100.14 1184.03 3100.14 1192.03" stroke="#3D1244" stroke-width="2.29167" stroke-linecap="round" stroke-linejoin="round" stroke-miterlimit="10" fill="none" fill-rule="evenodd"/><path d="M2944.15 1183.98 2944.15 1191.98" stroke="#3D1244" stroke-width="2.29167" stroke-linecap="round" stroke-linejoin="round" stroke-miterlimit="10" fill="none" fill-rule="evenodd"/><path d="M2975.15 1183.99 2975.15 1191.99" stroke="#3D1244" stroke-width="2.29167" stroke-linecap="round" stroke-linejoin="round" stroke-miterlimit="10" fill="none" fill-rule="evenodd"/><path d="M3006.15 1184 3006.15 1192" stroke="#3D1244" stroke-width="2.29167" stroke-linecap="round" stroke-linejoin="round" stroke-miterlimit="10" fill="none" fill-rule="evenodd"/><path d="M2851.14 1183.96 2851.14 1191.96" stroke="#3D1244" stroke-width="2.29167" stroke-linecap="round" stroke-linejoin="round" stroke-miterlimit="10" fill="none" fill-rule="evenodd"/><path d="M2882.14 1183.97 2882.14 1191.97" stroke="#3D1244" stroke-width="2.29167" stroke-linecap="round" stroke-linejoin="round" stroke-miterlimit="10" fill="none" fill-rule="evenodd"/><path d="M3038.14 1184.01 3038.14 1192.01" stroke="#3D1244" stroke-width="2.29167" stroke-linecap="round" stroke-linejoin="round" stroke-miterlimit="10" fill="none" fill-rule="evenodd"/><path d="M3069.14 1184.02 3069.14 1192.02" stroke="#3D1244" stroke-width="2.29167" stroke-linecap="round" stroke-linejoin="round" stroke-miterlimit="10" fill="none" fill-rule="evenodd"/><path d="M2913 1425.97 2913 1433.98" stroke="#3D1244" stroke-width="2.29167" stroke-linecap="round" stroke-linejoin="round" stroke-miterlimit="10" fill="none" fill-rule="evenodd"/><path d="M3100 1426.03 3100 1434.03" stroke="#3D1244" stroke-width="2.29167" stroke-linecap="round" stroke-linejoin="round" stroke-miterlimit="10" fill="none" fill-rule="evenodd"/><path d="M2944 1425.98 2944 1433.98" stroke="#3D1244" stroke-width="2.29167" stroke-linecap="round" stroke-linejoin="round" stroke-miterlimit="10" fill="none" fill-rule="evenodd"/><path d="M2975 1425.99 2975 1433.99" stroke="#3D1244" stroke-width="2.29167" stroke-linecap="round" stroke-linejoin="round" stroke-miterlimit="10" fill="none" fill-rule="evenodd"/><path d="M3006 1426 3006 1434" stroke="#3D1244" stroke-width="2.29167" stroke-linecap="round" stroke-linejoin="round" stroke-miterlimit="10" fill="none" fill-rule="evenodd"/><path d="M2851 1425.96 2851 1433.96" stroke="#3D1244" stroke-width="2.29167" stroke-linecap="round" stroke-linejoin="round" stroke-miterlimit="10" fill="none" fill-rule="evenodd"/><path d="M2882 1425.97 2882 1433.97" stroke="#3D1244" stroke-width="2.29167" stroke-linecap="round" stroke-linejoin="round" stroke-miterlimit="10" fill="none" fill-rule="evenodd"/><path d="M3038 1426.01 3038 1434.01" stroke="#3D1244" stroke-width="2.29167" stroke-linecap="round" stroke-linejoin="round" stroke-miterlimit="10" fill="none" fill-rule="evenodd"/><path d="M3069 1426.02 3069 1434.02" stroke="#3D1244" stroke-width="2.29167" stroke-linecap="round" stroke-linejoin="round" stroke-miterlimit="10" fill="none" fill-rule="evenodd"/><path d="M2849.96 1370.97 2857.96 1370.97" stroke="#3D1244" stroke-width="2.29167" stroke-linecap="round" stroke-linejoin="round" stroke-miterlimit="10" fill="none" fill-rule="evenodd"/><path d="M2849.96 1183.85 2857.96 1183.85" stroke="#3D1244" stroke-width="2.29167" stroke-linecap="round" stroke-linejoin="round" stroke-miterlimit="10" fill="none" fill-rule="evenodd"/><path d="M2849.96 1339.95 2857.96 1339.95" stroke="#3D1244" stroke-width="2.29167" stroke-linecap="round" stroke-linejoin="round" stroke-miterlimit="10" fill="none" fill-rule="evenodd"/><path d="M2849.96 1308.93 2857.96 1308.93" stroke="#3D1244" stroke-width="2.29167" stroke-linecap="round" stroke-linejoin="round" stroke-miterlimit="10" fill="none" fill-rule="evenodd"/><path d="M2849.96 1277.91 2857.96 1277.91" stroke="#3D1244" stroke-width="2.29167" stroke-linecap="round" stroke-linejoin="round" stroke-miterlimit="10" fill="none" fill-rule="evenodd"/><path d="M2849.96 1434.01 2857.96 1434.01" stroke="#3D1244" stroke-width="2.29167" stroke-linecap="round" stroke-linejoin="round" stroke-miterlimit="10" fill="none" fill-rule="evenodd"/><path d="M2849.96 1401.99 2857.96 1401.99" stroke="#3D1244" stroke-width="2.29167" stroke-linecap="round" stroke-linejoin="round" stroke-miterlimit="10" fill="none" fill-rule="evenodd"/><path d="M2849.96 1245.89 2857.96 1245.89" stroke="#3D1244" stroke-width="2.29167" stroke-linecap="round" stroke-linejoin="round" stroke-miterlimit="10" fill="none" fill-rule="evenodd"/><path d="M2849.96 1214.87 2857.96 1214.87" stroke="#3D1244" stroke-width="2.29167" stroke-linecap="round" stroke-linejoin="round" stroke-miterlimit="10" fill="none" fill-rule="evenodd"/><path d="M2973.95 1310.99 2973.95 1317.99" stroke="#3D1244" stroke-width="2.29167" stroke-linecap="round" stroke-linejoin="round" stroke-miterlimit="10" fill="none" fill-rule="evenodd"/><path d="M2978.01 1313.95 2971.01 1313.95" stroke="#3D1244" stroke-width="2.29167" stroke-linecap="round" stroke-linejoin="round" stroke-miterlimit="10" fill="none" fill-rule="evenodd"/><path d="M2977.96 1288.98 2977.96 1295.98" stroke="#3D1244" stroke-width="2.29167" stroke-linecap="round" stroke-linejoin="round" stroke-miterlimit="10" fill="none" fill-rule="evenodd"/><path d="M2982.02 1291.96 2975.02 1291.96" stroke="#3D1244" stroke-width="2.29167" stroke-linecap="round" stroke-linejoin="round" stroke-miterlimit="10" fill="none" fill-rule="evenodd"/><path d="M3003.97 1287.98 3003.97 1295.98" stroke="#3D1244" stroke-width="2.29167" stroke-linecap="round" stroke-linejoin="round" stroke-miterlimit="10" fill="none" fill-rule="evenodd"/><path d="M3008.02 1291.97 3000.02 1291.97" stroke="#3D1244" stroke-width="2.29167" stroke-linecap="round" stroke-linejoin="round" stroke-miterlimit="10" fill="none" fill-rule="evenodd"/><path d="M3089.02 1267.98 3089.02 1274.98" stroke="#3D1244" stroke-width="2.29167" stroke-linecap="round" stroke-linejoin="round" stroke-miterlimit="10" fill="none" fill-rule="evenodd"/><path d="M3093.02 1271.02 3085.02 1271.02" stroke="#3D1244" stroke-width="2.29167" stroke-linecap="round" stroke-linejoin="round" stroke-miterlimit="10" fill="none" fill-rule="evenodd"/><path d="M2923.92 1299.99 2923.92 1306.99" stroke="#3D1244" stroke-width="2.29167" stroke-linecap="round" stroke-linejoin="round" stroke-miterlimit="10" fill="none" fill-rule="evenodd"/><path d="M2928.02 1302.92 2920.02 1302.92" stroke="#3D1244" stroke-width="2.29167" stroke-linecap="round" stroke-linejoin="round" stroke-miterlimit="10" fill="none" fill-rule="evenodd"/><path d="M3020.98 1271.98 3020.98 1278.98" stroke="#3D1244" stroke-width="2.29167" stroke-linecap="round" stroke-linejoin="round" stroke-miterlimit="10" fill="none" fill-rule="evenodd"/><path d="M3025.02 1274.98 3018.02 1274.98" stroke="#3D1244" stroke-width="2.29167" stroke-linecap="round" stroke-linejoin="round" stroke-miterlimit="10" fill="none" fill-rule="evenodd"/><path d="M2915.92 1339 2915.92 1346" stroke="#3D1244" stroke-width="2.29167" stroke-linecap="round" stroke-linejoin="round" stroke-miterlimit="10" fill="none" fill-rule="evenodd"/><path d="M2920 1341.92 2913 1341.92" stroke="#3D1244" stroke-width="2.29167" stroke-linecap="round" stroke-linejoin="round" stroke-miterlimit="10" fill="none" fill-rule="evenodd"/><path d="M2995.97 1271.98 2995.97 1279.98" stroke="#3D1244" stroke-width="2.29167" stroke-linecap="round" stroke-linejoin="round" stroke-miterlimit="10" fill="none" fill-rule="evenodd"/><path d="M3000.02 1275.97 2993.02 1275.97" stroke="#3D1244" stroke-width="2.29167" stroke-linecap="round" stroke-linejoin="round" stroke-miterlimit="10" fill="none" fill-rule="evenodd"/><path d="M2883.9 1329.99 2883.9 1336.99" stroke="#3D1244" stroke-width="2.29167" stroke-linecap="round" stroke-linejoin="round" stroke-miterlimit="10" fill="none" fill-rule="evenodd"/><path d="M2888.01 1332.9 2881.01 1332.9" stroke="#3D1244" stroke-width="2.29167" stroke-linecap="round" stroke-linejoin="round" stroke-miterlimit="10" fill="none" fill-rule="evenodd"/><path d="M2866.89 1303.99 2866.89 1310.99" stroke="#3D1244" stroke-width="2.29167" stroke-linecap="round" stroke-linejoin="round" stroke-miterlimit="10" fill="none" fill-rule="evenodd"/><path d="M2871.01 1306.89 2863.01 1306.89" stroke="#3D1244" stroke-width="2.29167" stroke-linecap="round" stroke-linejoin="round" stroke-miterlimit="10" fill="none" fill-rule="evenodd"/><path d="M3002.97 1279.98 3002.97 1286.98" stroke="#3D1244" stroke-width="2.29167" stroke-linecap="round" stroke-linejoin="round" stroke-miterlimit="10" fill="none" fill-rule="evenodd"/><path d="M3007.02 1282.97 2999.02 1282.97" stroke="#3D1244" stroke-width="2.29167" stroke-linecap="round" stroke-linejoin="round" stroke-miterlimit="10" fill="none" fill-rule="evenodd"/><path d="M3083.02 1229.96 3083.02 1237.96" stroke="#3D1244" stroke-width="2.29167" stroke-linecap="round" stroke-linejoin="round" stroke-miterlimit="10" fill="none" fill-rule="evenodd"/><path d="M3087.03 1234.02 3079.03 1234.02" stroke="#3D1244" stroke-width="2.29167" stroke-linecap="round" stroke-linejoin="round" stroke-miterlimit="10" fill="none" fill-rule="evenodd"/><path d="M3043 1249.97 3043 1256.97" stroke="#3D1244" stroke-width="2.29167" stroke-linecap="round" stroke-linejoin="round" stroke-miterlimit="10" fill="none" fill-rule="evenodd"/><path d="M3047.03 1253 3040.03 1253" stroke="#3D1244" stroke-width="2.29167" stroke-linecap="round" stroke-linejoin="round" stroke-miterlimit="10" fill="none" fill-rule="evenodd"/><path d="M3061.01 1274.98 3061.01 1282.98" stroke="#3D1244" stroke-width="2.29167" stroke-linecap="round" stroke-linejoin="round" stroke-miterlimit="10" fill="none" fill-rule="evenodd"/><path d="M3065.02 1279.01 3057.02 1279.01" stroke="#3D1244" stroke-width="2.29167" stroke-linecap="round" stroke-linejoin="round" stroke-miterlimit="10" fill="none" fill-rule="evenodd"/><path d="M3031.99 1282.98 3031.99 1289.98" stroke="#3D1244" stroke-width="2.29167" stroke-linecap="round" stroke-linejoin="round" stroke-miterlimit="10" fill="none" fill-rule="evenodd"/><path d="M3036.02 1285.99 3029.02 1285.99" stroke="#3D1244" stroke-width="2.29167" stroke-linecap="round" stroke-linejoin="round" stroke-miterlimit="10" fill="none" fill-rule="evenodd"/><path d="M2961.95 1290.98 2961.95 1297.98" stroke="#3D1244" stroke-width="2.29167" stroke-linecap="round" stroke-linejoin="round" stroke-miterlimit="10" fill="none" fill-rule="evenodd"/><path d="M2966.02 1293.95 2959.02 1293.95" stroke="#3D1244" stroke-width="2.29167" stroke-linecap="round" stroke-linejoin="round" stroke-miterlimit="10" fill="none" fill-rule="evenodd"/><path d="M2930.93 1321.99 2930.93 1329.99" stroke="#3D1244" stroke-width="2.29167" stroke-linecap="round" stroke-linejoin="round" stroke-miterlimit="10" fill="none" fill-rule="evenodd"/><path d="M2935.01 1325.93 2928.01 1325.93" stroke="#3D1244" stroke-width="2.29167" stroke-linecap="round" stroke-linejoin="round" stroke-miterlimit="10" fill="none" fill-rule="evenodd"/><path d="M2964.95 1302.99 2964.95 1310.99" stroke="#3D1244" stroke-width="2.29167" stroke-linecap="round" stroke-linejoin="round" stroke-miterlimit="10" fill="none" fill-rule="evenodd"/><path d="M2969.01 1306.95 2961.01 1306.95" stroke="#3D1244" stroke-width="2.29167" stroke-linecap="round" stroke-linejoin="round" stroke-miterlimit="10" fill="none" fill-rule="evenodd"/><path d="M2989.96 1288.98 2989.96 1295.98" stroke="#3D1244" stroke-width="2.29167" stroke-linecap="round" stroke-linejoin="round" stroke-miterlimit="10" fill="none" fill-rule="evenodd"/><path d="M2994.02 1291.96 2986.02 1291.96" stroke="#3D1244" stroke-width="2.29167" stroke-linecap="round" stroke-linejoin="round" stroke-miterlimit="10" fill="none" fill-rule="evenodd"/><path d="M2969.95 1321.99 2969.95 1329.99" stroke="#3D1244" stroke-width="2.29167" stroke-linecap="round" stroke-linejoin="round" stroke-miterlimit="10" fill="none" fill-rule="evenodd"/><path d="M2974.01 1325.95 2967.01 1325.95" stroke="#3D1244" stroke-width="2.29167" stroke-linecap="round" stroke-linejoin="round" stroke-miterlimit="10" fill="none" fill-rule="evenodd"/><path d="M2941.93 1297.98 2941.93 1305.98" stroke="#3D1244" stroke-width="2.29167" stroke-linecap="round" stroke-linejoin="round" stroke-miterlimit="10" fill="none" fill-rule="evenodd"/><path d="M2946.02 1301.93 2938.02 1301.93" stroke="#3D1244" stroke-width="2.29167" stroke-linecap="round" stroke-linejoin="round" stroke-miterlimit="10" fill="none" fill-rule="evenodd"/><path d="M2984.96 1300.99 2984.96 1308.98" stroke="#3D1244" stroke-width="2.29167" stroke-linecap="round" stroke-linejoin="round" stroke-miterlimit="10" fill="none" fill-rule="evenodd"/><path d="M2989.01 1304.96 2981.01 1304.96" stroke="#3D1244" stroke-width="2.29167" stroke-linecap="round" stroke-linejoin="round" stroke-miterlimit="10" fill="none" fill-rule="evenodd"/><path d="M3020.98 1290.98 3020.98 1297.98" stroke="#3D1244" stroke-width="2.29167" stroke-linecap="round" stroke-linejoin="round" stroke-miterlimit="10" fill="none" fill-rule="evenodd"/><path d="M3025.02 1293.98 3018.02 1293.98" stroke="#3D1244" stroke-width="2.29167" stroke-linecap="round" stroke-linejoin="round" stroke-miterlimit="10" fill="none" fill-rule="evenodd"/><path d="M2899.91 1346 2899.91 1354" stroke="#3D1244" stroke-width="2.29167" stroke-linecap="round" stroke-linejoin="round" stroke-miterlimit="10" fill="none" fill-rule="evenodd"/><path d="M2903 1349.91 2896 1349.91" stroke="#3D1244" stroke-width="2.29167" stroke-linecap="round" stroke-linejoin="round" stroke-miterlimit="10" fill="none" fill-rule="evenodd"/><path d="M3008.97 1268.98 3008.97 1275.98" stroke="#3D1244" stroke-width="2.29167" stroke-linecap="round" stroke-linejoin="round" stroke-miterlimit="10" fill="none" fill-rule="evenodd"/><path d="M3013.02 1271.97 3005.02 1271.97" stroke="#3D1244" stroke-width="2.29167" stroke-linecap="round" stroke-linejoin="round" stroke-miterlimit="10" fill="none" fill-rule="evenodd"/><path d="M2891.9 1306.99 2891.9 1314.99" stroke="#3D1244" stroke-width="2.29167" stroke-linecap="round" stroke-linejoin="round" stroke-miterlimit="10" fill="none" fill-rule="evenodd"/><path d="M2896.01 1310.9 2888.01 1310.9" stroke="#3D1244" stroke-width="2.29167" stroke-linecap="round" stroke-linejoin="round" stroke-miterlimit="10" fill="none" fill-rule="evenodd"/><path d="M2957.94 1315.99 2957.94 1323.99" stroke="#3D1244" stroke-width="2.29167" stroke-linecap="round" stroke-linejoin="round" stroke-miterlimit="10" fill="none" fill-rule="evenodd"/><path d="M2962.01 1319.94 2955.01 1319.94" stroke="#3D1244" stroke-width="2.29167" stroke-linecap="round" stroke-linejoin="round" stroke-miterlimit="10" fill="none" fill-rule="evenodd"/><path d="M2858.88 1354 2858.88 1361" stroke="#3D1244" stroke-width="2.29167" stroke-linecap="round" stroke-linejoin="round" stroke-miterlimit="10" fill="none" fill-rule="evenodd"/><path d="M2863 1356.88 2856 1356.88" stroke="#3D1244" stroke-width="2.29167" stroke-linecap="round" stroke-linejoin="round" stroke-miterlimit="10" fill="none" fill-rule="evenodd"/><path d="M3075.02 1211.96 3075.02 1218.96" stroke="#3D1244" stroke-width="2.29167" stroke-linecap="round" stroke-linejoin="round" stroke-miterlimit="10" fill="none" fill-rule="evenodd"/><path d="M3079.04 1215.02 3072.04 1215.02" stroke="#3D1244" stroke-width="2.29167" stroke-linecap="round" stroke-linejoin="round" stroke-miterlimit="10" fill="none" fill-rule="evenodd"/><path d="M3057 1230.97 3057 1237.97" stroke="#3D1244" stroke-width="2.29167" stroke-linecap="round" stroke-linejoin="round" stroke-miterlimit="10" fill="none" fill-rule="evenodd"/><path d="M3061.03 1234 3053.03 1234" stroke="#3D1244" stroke-width="2.29167" stroke-linecap="round" stroke-linejoin="round" stroke-miterlimit="10" fill="none" fill-rule="evenodd"/><path d="M3099.96 1240.97 2851.96 1355.97" stroke="#200117" stroke-width="2.29167" stroke-linecap="round" stroke-linejoin="round" stroke-miterlimit="10" fill="none" fill-rule="evenodd"/><path d="M2601.9 472.945C2601.9 490.618 2587.57 504.945 2569.9 504.945 2552.23 504.945 2537.9 490.618 2537.9 472.945 2537.9 455.272 2552.23 440.945 2569.9 440.945 2587.57 440.945 2601.9 455.272 2601.9 472.945Z" fill="#438AFE" fill-rule="evenodd"/><path d="M2569.9 440.945C2587.56 440.945 2601.9 455.285 2601.9 472.949 2601.9 490.605 2587.56 504.945 2569.9 504.945 2552.24 504.945 2537.9 490.605 2537.9 472.949 2537.9 455.285 2552.24 440.945 2569.9 440.945ZM2569.9 449.972C2582.58 449.972 2592.86 460.268 2592.86 472.949 2592.86 485.623 2582.58 495.918 2569.9 495.918 2557.23 495.918 2546.94 485.623 2546.94 472.949 2546.94 460.268 2557.23 449.972 2569.9 449.972Z" fill="#3D1244" fill-rule="evenodd"/><path d="M2480.87 578.973C2480.87 596.646 2466.77 610.973 2449.37 610.973 2431.97 610.973 2417.87 596.646 2417.87 578.973 2417.87 561.3 2431.97 546.973 2449.37 546.973 2466.77 546.973 2480.87 561.3 2480.87 578.973Z" fill="#438AFE" fill-rule="evenodd"/><path d="M2449.37 546.973C2466.76 546.973 2480.87 561.313 2480.87 578.977 2480.87 596.634 2466.76 610.973 2449.37 610.973 2431.98 610.973 2417.87 596.634 2417.87 578.977 2417.87 561.313 2431.98 546.973 2449.37 546.973ZM2449.37 556C2461.85 556 2471.97 566.296 2471.97 578.977 2471.97 591.651 2461.85 601.946 2449.37 601.946 2436.9 601.946 2426.77 591.651 2426.77 578.977 2426.77 566.296 2436.9 556 2449.37 556Z" fill="#3D1244" fill-rule="evenodd"/><path d="M2721.93 578.973C2721.93 596.646 2707.61 610.973 2689.93 610.973 2672.26 610.973 2657.93 596.646 2657.93 578.973 2657.93 561.3 2672.26 546.973 2689.93 546.973 2707.61 546.973 2721.93 561.3 2721.93 578.973Z" fill="#438AFE" fill-rule="evenodd"/><path d="M2689.93 546.973C2707.59 546.973 2721.93 561.313 2721.93 578.977 2721.93 596.634 2707.59 610.973 2689.93 610.973 2672.27 610.973 2657.93 596.634 2657.93 578.977 2657.93 561.313 2672.27 546.973 2689.93 546.973ZM2689.93 556C2702.61 556 2712.89 566.296 2712.89 578.977 2712.89 591.651 2702.61 601.946 2689.93 601.946 2677.26 601.946 2666.97 591.651 2666.97 578.977 2666.97 566.296 2677.26 556 2689.93 556Z" fill="#3D1244" fill-rule="evenodd"/><path d="M2841.96 685.502C2841.96 702.899 2827.64 717.002 2809.96 717.002 2792.29 717.002 2777.96 702.899 2777.96 685.502 2777.96 668.105 2792.29 654.002 2809.96 654.002 2827.64 654.002 2841.96 668.105 2841.96 685.502Z" fill="#438AFE" fill-rule="evenodd"/><path d="M2809.96 654.002C2827.63 654.002 2841.96 668.118 2841.96 685.506 2841.96 702.886 2827.63 717.002 2809.96 717.002 2792.3 717.002 2777.96 702.886 2777.96 685.506 2777.96 668.118 2792.3 654.002 2809.96 654.002ZM2809.96 662.888C2822.64 662.888 2832.93 673.022 2832.93 685.506 2832.93 697.982 2822.64 708.116 2809.96 708.116 2797.29 708.116 2787 697.982 2787 685.506 2787 673.022 2797.29 662.888 2809.96 662.888Z" fill="#3D1244" fill-rule="evenodd"/><path d="M2601.9 685.502C2601.9 702.899 2587.57 717.002 2569.9 717.002 2552.23 717.002 2537.9 702.899 2537.9 685.502 2537.9 668.105 2552.23 654.002 2569.9 654.002 2587.57 654.002 2601.9 668.105 2601.9 685.502Z" fill="#438AFE" fill-rule="evenodd"/><path d="M2569.9 654.002C2587.56 654.002 2601.9 668.118 2601.9 685.506 2601.9 702.886 2587.56 717.002 2569.9 717.002 2552.24 717.002 2537.9 702.886 2537.9 685.506 2537.9 668.118 2552.24 654.002 2569.9 654.002ZM2569.9 662.888C2582.58 662.888 2592.86 673.022 2592.86 685.506 2592.86 697.982 2582.58 708.116 2569.9 708.116 2557.23 708.116 2546.94 697.982 2546.94 685.506 2546.94 673.022 2557.23 662.888 2569.9 662.888Z" fill="#3D1244" fill-rule="evenodd"/><path d="M2721.93 792.03C2721.93 809.703 2707.61 824.03 2689.93 824.03 2672.26 824.03 2657.93 809.703 2657.93 792.03 2657.93 774.357 2672.26 760.03 2689.93 760.03 2707.61 760.03 2721.93 774.357 2721.93 792.03Z" fill="#438AFE" fill-rule="evenodd"/><path d="M2689.93 760.03C2707.59 760.03 2721.93 774.37 2721.93 792.034 2721.93 809.69 2707.59 824.03 2689.93 824.03 2672.27 824.03 2657.93 809.69 2657.93 792.034 2657.93 774.37 2672.27 760.03 2689.93 760.03ZM2689.93 769.057C2702.61 769.057 2712.89 779.353 2712.89 792.034 2712.89 804.708 2702.61 815.003 2689.93 815.003 2677.26 815.003 2666.97 804.708 2666.97 792.034 2666.97 779.353 2677.26 769.057 2689.93 769.057Z" fill="#3D1244" fill-rule="evenodd"/><path d="M2568 627 2559 654 2550 627 2568 627Z" fill="#3D1244" fill-rule="evenodd"/><path d="M2559.5 505.5 2559.5 632.5" stroke="#3D1244" stroke-width="11.3277" stroke-linecap="round" stroke-linejoin="round" stroke-miterlimit="10" fill="none" fill-rule="evenodd"/><path d="M2572 532 2581 505 2590 532 2572 532Z" fill="#3D1244" fill-rule="evenodd"/><path d="M2581.5 654.5 2581.5 527.5" stroke="#3D1244" stroke-width="11.3277" stroke-linecap="round" stroke-linejoin="round" stroke-miterlimit="10" fill="none" fill-rule="evenodd"/><path d="M2688 733 2679 760 2670 733 2688 733Z" fill="#3D1244" fill-rule="evenodd"/><path d="M2679.5 611.5 2679.5 738.5" stroke="#3D1244" stroke-width="11.3277" stroke-linecap="round" stroke-linejoin="round" stroke-miterlimit="10" fill="none" fill-rule="evenodd"/><path d="M2692 638 2701 611 2710 638 2692 638Z" fill="#3D1244" fill-rule="evenodd"/><path d="M2701.5 760.5 2701.5 633.5" stroke="#3D1244" stroke-width="11.3277" stroke-linecap="round" stroke-linejoin="round" stroke-miterlimit="10" fill="none" fill-rule="evenodd"/><path d="M2646 677 2673 686 2646 695 2646 677Z" fill="#3D1244" fill-rule="evenodd"/><path d="M2602.5 686.5 2652.5 686.5" stroke="#3D1244" stroke-width="11.3277" stroke-linecap="round" stroke-linejoin="round" stroke-miterlimit="10" stroke-dasharray="130.297 152.952 130.297 152.952" fill="none" fill-rule="evenodd"/><path d="M2526 570 2553 579 2526 588 2526 570Z" fill="#3D1244" fill-rule="evenodd"/><path d="M2481.5 579.5 2531.5 579.5" stroke="#3D1244" stroke-width="11.3277" stroke-linecap="round" stroke-linejoin="round" stroke-miterlimit="10" stroke-dasharray="130.297 152.952 130.297 152.952" fill="none" fill-rule="evenodd"/><path d="M2613 588 2586 579 2613 570 2613 588Z" fill="#3D1244" fill-rule="evenodd"/><path d="M2658.5 579.5 2608.5 579.5" stroke="#3D1244" stroke-width="11.3277" stroke-linecap="round" stroke-linejoin="round" stroke-miterlimit="10" stroke-dasharray="130.297 152.952 130.297 152.952" fill="none" fill-rule="evenodd"/><path d="M2733 695 2707 686 2733 677 2733 695Z" fill="#3D1244" fill-rule="evenodd"/><path d="M2778.5 686.5 2728.5 686.5" stroke="#3D1244" stroke-width="11.3277" stroke-linecap="round" stroke-linejoin="round" stroke-miterlimit="10" stroke-dasharray="130.297 152.952 130.297 152.952" fill="none" fill-rule="evenodd"/><path d="M1543.49 1176.47 1599.49 1176.47 1599.49 1232.47 1543.49 1232.47Z" stroke="#000000" stroke-width="1.14583" stroke-linecap="round" stroke-linejoin="round" stroke-miterlimit="10" fill="#A00975" fill-rule="evenodd"/><path d="M1599.49 1176.47 1543.49 1176.47 1543.49 1232.47 1599.49 1232.47 1599.49 1176.47ZM1594.1 1181.86 1594.1 1227.09C1594.1 1227.09 1548.88 1227.09 1548.88 1227.09 1548.88 1227.09 1548.88 1181.86 1548.88 1181.86L1594.1 1181.86Z" stroke="#000000" stroke-width="1.14583" stroke-linecap="round" stroke-linejoin="round" stroke-miterlimit="10" fill="#3D1244" fill-rule="evenodd"/><path d="M1609.51 1176.47 1665.51 1176.47 1665.51 1232.47 1609.51 1232.47Z" stroke="#000000" stroke-width="1.14583" stroke-linecap="round" stroke-linejoin="round" stroke-miterlimit="10" fill="#438AFE" fill-rule="evenodd"/><path d="M1665.51 1176.47 1609.51 1176.47 1609.51 1232.47 1665.51 1232.47 1665.51 1176.47ZM1660.12 1181.86 1660.12 1227.09C1660.12 1227.09 1614.9 1227.09 1614.9 1227.09 1614.9 1227.09 1614.9 1181.86 1614.9 1181.86L1660.12 1181.86Z" stroke="#000000" stroke-width="1.14583" stroke-linecap="round" stroke-linejoin="round" stroke-miterlimit="10" fill="#3D1244" fill-rule="evenodd"/><path d="M1609.51 1110.46 1665.51 1110.46 1665.51 1166.46 1609.51 1166.46Z" stroke="#000000" stroke-width="1.14583" stroke-linecap="round" stroke-linejoin="round" stroke-miterlimit="10" fill="#438AFE" fill-rule="evenodd"/><path d="M1665.51 1110.46 1609.51 1110.46 1609.51 1166.46 1665.51 1166.46 1665.51 1110.46ZM1660.12 1115.84 1660.12 1161.07C1660.12 1161.07 1614.9 1161.07 1614.9 1161.07 1614.9 1161.07 1614.9 1115.84 1614.9 1115.84L1660.12 1115.84Z" stroke="#000000" stroke-width="1.14583" stroke-linecap="round" stroke-linejoin="round" stroke-miterlimit="10" fill="#3D1244" fill-rule="evenodd"/><path d="M1477.47 1176.47 1533.47 1176.47 1533.47 1232.47 1477.47 1232.47Z" stroke="#000000" stroke-width="1.14583" stroke-linecap="round" stroke-linejoin="round" stroke-miterlimit="10" fill="#A00975" fill-rule="evenodd"/><path d="M1533.47 1176.47 1477.47 1176.47 1477.47 1232.47 1533.47 1232.47 1533.47 1176.47ZM1528.08 1181.86 1528.08 1227.09C1528.08 1227.09 1482.87 1227.09 1482.87 1227.09 1482.87 1227.09 1482.87 1181.86 1482.87 1181.86L1528.08 1181.86Z" stroke="#000000" stroke-width="1.14583" stroke-linecap="round" stroke-linejoin="round" stroke-miterlimit="10" fill="#3D1244" fill-rule="evenodd"/><path d="M1410.46 1176.47 1466.46 1176.47 1466.46 1232.47 1410.46 1232.47Z" stroke="#000000" stroke-width="1.14583" stroke-linecap="round" stroke-linejoin="round" stroke-miterlimit="10" fill="#A00975" fill-rule="evenodd"/><path d="M1466.46 1176.47 1410.46 1176.47 1410.46 1232.47 1466.46 1232.47 1466.46 1176.47ZM1461.07 1181.86 1461.07 1227.09C1461.07 1227.09 1415.85 1227.09 1415.85 1227.09 1415.85 1227.09 1415.85 1181.86 1415.85 1181.86L1461.07 1181.86Z" stroke="#000000" stroke-width="1.14583" stroke-linecap="round" stroke-linejoin="round" stroke-miterlimit="10" fill="#3D1244" fill-rule="evenodd"/><path d="M1441.5 1194.5 1441.5 1215.5" stroke="#3D1244" stroke-width="1.14583" stroke-linecap="round" stroke-miterlimit="8" fill="none" fill-rule="evenodd"/><path d="M1621.5 1196.5 1637.5 1204.5 1621.5 1212.5 1621.5 1196.5Z" stroke="#000000" stroke-width="1.14583" stroke-linecap="round" stroke-linejoin="round" stroke-miterlimit="10" fill="#3D1244" fill-rule="evenodd"/><path d="M1441.5 1204.5 1624.5 1204.5" stroke="#3D1244" stroke-width="1.14583" stroke-linecap="round" stroke-linejoin="round" stroke-miterlimit="10" fill="none" fill-rule="evenodd"/><path d="M1543.49 1243.49 1599.49 1243.49 1599.49 1299.49 1543.49 1299.49Z" stroke="#000000" stroke-width="1.14583" stroke-linecap="round" stroke-linejoin="round" stroke-miterlimit="10" fill="#A00975" fill-rule="evenodd"/><path d="M1599.49 1243.49 1543.49 1243.49 1543.49 1299.49 1599.49 1299.49 1599.49 1243.49ZM1594.1 1248.88 1594.1 1294.1C1594.1 1294.1 1548.88 1294.1 1548.88 1294.1 1548.88 1294.1 1548.88 1248.88 1548.88 1248.88L1594.1 1248.88Z" stroke="#000000" stroke-width="1.14583" stroke-linecap="round" stroke-linejoin="round" stroke-miterlimit="10" fill="#3D1244" fill-rule="evenodd"/><path d="M1609.51 1243.49 1665.51 1243.49 1665.51 1299.49 1609.51 1299.49Z" stroke="#000000" stroke-width="1.14583" stroke-linecap="round" stroke-linejoin="round" stroke-miterlimit="10" fill="#438AFE" fill-rule="evenodd"/><path d="M1665.51 1243.49 1609.51 1243.49 1609.51 1299.49 1665.51 1299.49 1665.51 1243.49ZM1660.12 1248.88 1660.12 1294.1C1660.12 1294.1 1614.9 1294.1 1614.9 1294.1 1614.9 1294.1 1614.9 1248.88 1614.9 1248.88L1660.12 1248.88Z" stroke="#000000" stroke-width="1.14583" stroke-linecap="round" stroke-linejoin="round" stroke-miterlimit="10" fill="#3D1244" fill-rule="evenodd"/><path d="M1477.47 1243.49 1533.47 1243.49 1533.47 1299.49 1477.47 1299.49Z" stroke="#000000" stroke-width="1.14583" stroke-linecap="round" stroke-linejoin="round" stroke-miterlimit="10" fill="#A00975" fill-rule="evenodd"/><path d="M1533.47 1243.49 1477.47 1243.49 1477.47 1299.49 1533.47 1299.49 1533.47 1243.49ZM1528.08 1248.88 1528.08 1294.1C1528.08 1294.1 1482.87 1294.1 1482.87 1294.1 1482.87 1294.1 1482.87 1248.88 1482.87 1248.88L1528.08 1248.88Z" stroke="#000000" stroke-width="1.14583" stroke-linecap="round" stroke-linejoin="round" stroke-miterlimit="10" fill="#3D1244" fill-rule="evenodd"/><path d="M1410.46 1243.49 1466.46 1243.49 1466.46 1299.49 1410.46 1299.49Z" stroke="#000000" stroke-width="1.14583" stroke-linecap="round" stroke-linejoin="round" stroke-miterlimit="10" fill="#A00975" fill-rule="evenodd"/><path d="M1466.46 1243.49 1410.46 1243.49 1410.46 1299.49 1466.46 1299.49 1466.46 1243.49ZM1461.07 1248.88 1461.07 1294.1C1461.07 1294.1 1415.85 1294.1 1415.85 1294.1 1415.85 1294.1 1415.85 1248.88 1415.85 1248.88L1461.07 1248.88Z" stroke="#000000" stroke-width="1.14583" stroke-linecap="round" stroke-linejoin="round" stroke-miterlimit="10" fill="#3D1244" fill-rule="evenodd"/><path d="M1441.5 1260.5 1441.5 1281.5" stroke="#3D1244" stroke-width="1.14583" stroke-linecap="round" stroke-miterlimit="8" fill="none" fill-rule="evenodd"/><path d="M1621.5 1263.5 1637.5 1271.5 1621.5 1279.5 1621.5 1263.5Z" stroke="#000000" stroke-width="1.14583" stroke-linecap="round" stroke-linejoin="round" stroke-miterlimit="10" fill="#3D1244" fill-rule="evenodd"/><path d="M1441.5 1271.5 1624.5 1271.5" stroke="#3D1244" stroke-width="1.14583" stroke-linecap="round" stroke-linejoin="round" stroke-miterlimit="10" fill="none" fill-rule="evenodd"/><path d="M1543.49 1309.51 1599.49 1309.51 1599.49 1365.51 1543.49 1365.51Z" stroke="#000000" stroke-width="1.14583" stroke-linecap="round" stroke-linejoin="round" stroke-miterlimit="10" fill="#A00975" fill-rule="evenodd"/><path d="M1599.49 1309.51 1543.49 1309.51 1543.49 1365.51 1599.49 1365.51 1599.49 1309.51ZM1594.1 1314.9 1594.1 1360.12C1594.1 1360.12 1548.88 1360.12 1548.88 1360.12 1548.88 1360.12 1548.88 1314.9 1548.88 1314.9L1594.1 1314.9Z" stroke="#000000" stroke-width="1.14583" stroke-linecap="round" stroke-linejoin="round" stroke-miterlimit="10" fill="#3D1244" fill-rule="evenodd"/><path d="M1609.51 1309.51 1665.51 1309.51 1665.51 1365.51 1609.51 1365.51Z" stroke="#000000" stroke-width="1.14583" stroke-linecap="round" stroke-linejoin="round" stroke-miterlimit="10" fill="#438AFE" fill-rule="evenodd"/><path d="M1665.51 1309.51 1609.51 1309.51 1609.51 1365.51 1665.51 1365.51 1665.51 1309.51ZM1660.12 1314.9 1660.12 1360.12C1660.12 1360.12 1614.9 1360.12 1614.9 1360.12 1614.9 1360.12 1614.9 1314.9 1614.9 1314.9L1660.12 1314.9Z" stroke="#000000" stroke-width="1.14583" stroke-linecap="round" stroke-linejoin="round" stroke-miterlimit="10" fill="#3D1244" fill-rule="evenodd"/><path d="M1477.47 1309.51 1533.47 1309.51 1533.47 1365.51 1477.47 1365.51Z" stroke="#000000" stroke-width="1.14583" stroke-linecap="round" stroke-linejoin="round" stroke-miterlimit="10" fill="#A00975" fill-rule="evenodd"/><path d="M1533.47 1309.51 1477.47 1309.51 1477.47 1365.51 1533.47 1365.51 1533.47 1309.51ZM1528.08 1314.9 1528.08 1360.12C1528.08 1360.12 1482.87 1360.12 1482.87 1360.12 1482.87 1360.12 1482.87 1314.9 1482.87 1314.9L1528.08 1314.9Z" stroke="#000000" stroke-width="1.14583" stroke-linecap="round" stroke-linejoin="round" stroke-miterlimit="10" fill="#3D1244" fill-rule="evenodd"/><path d="M1410.46 1309.51 1466.46 1309.51 1466.46 1365.51 1410.46 1365.51Z" stroke="#000000" stroke-width="1.14583" stroke-linecap="round" stroke-linejoin="round" stroke-miterlimit="10" fill="#A00975" fill-rule="evenodd"/><path d="M1466.46 1309.51 1410.46 1309.51 1410.46 1365.51 1466.46 1365.51 1466.46 1309.51ZM1461.07 1314.9 1461.07 1360.12C1461.07 1360.12 1415.85 1360.12 1415.85 1360.12 1415.85 1360.12 1415.85 1314.9 1415.85 1314.9L1461.07 1314.9Z" stroke="#000000" stroke-width="1.14583" stroke-linecap="round" stroke-linejoin="round" stroke-miterlimit="10" fill="#3D1244" fill-rule="evenodd"/><path d="M1441.5 1326.5 1441.5 1348.5" stroke="#3D1244" stroke-width="1.14583" stroke-linecap="round" stroke-miterlimit="8" fill="none" fill-rule="evenodd"/><path d="M1621.5 1329.5 1637.5 1337.5 1621.5 1345.5 1621.5 1329.5Z" stroke="#000000" stroke-width="1.14583" stroke-linecap="round" stroke-linejoin="round" stroke-miterlimit="10" fill="#3D1244" fill-rule="evenodd"/><path d="M1441.5 1337.5 1624.5 1337.5" stroke="#3D1244" stroke-width="1.14583" stroke-linecap="round" stroke-linejoin="round" stroke-miterlimit="10" fill="none" fill-rule="evenodd"/><path d="M1637.33 1124.47 1637.33 1152.47" stroke="#3D1244" stroke-width="1.14583" stroke-linecap="round" stroke-linejoin="round" stroke-miterlimit="10" fill="none" fill-rule="evenodd"/><path d="M1652.53 1138.33 1623.53 1138.33" stroke="#3D1244" stroke-width="1.14583" stroke-linecap="round" stroke-linejoin="round" stroke-miterlimit="10" fill="none" fill-rule="evenodd"/><path d="M1410.45 1110.47 1599.45 1110.47 1599.45 1166.47 1410.45 1166.47Z" stroke="#000000" stroke-width="1.14583" stroke-linecap="round" stroke-linejoin="round" stroke-miterlimit="10" fill="#438AFE" fill-rule="evenodd"/><path d="M1599.45 1110.47 1410.45 1110.47 1410.45 1166.47 1599.45 1166.47 1599.45 1110.47ZM1594.04 1115.86 1594.04 1161.08C1566.63 1161.08 1443.27 1161.08 1415.86 1161.08 1415.86 1161.08 1415.86 1115.86 1415.86 1115.86 1446.22 1115.86 1594.04 1115.86 1594.04 1115.86L1594.04 1115.86Z" stroke="#000000" stroke-width="1.14583" stroke-linecap="round" stroke-linejoin="round" stroke-miterlimit="10" fill="#3D1244" fill-rule="evenodd"/><path d="M2604 1651.84 2730.52 1651.84 2730.52 1662.16 2604 1662.16ZM2725.36 1641.53 2756.3 1657 2725.36 1672.47Z" fill="#3D1244"/><path d="M5.15625-1.11203e-05 5.15656 141.557-5.15594 141.557-5.15625 1.11203e-05ZM15.469 136.401 0.000360892 167.338-15.4685 136.401Z" fill="#3D1244" transform="matrix(1 0 0 -1 2974 1607.34)"/></g></svg>